<svg id="zoom-in" xmlns="http://www.w3.org/2000/svg" width="100" height="100" viewBox="0 0 50 50"><defs><style>.cls-1,.cls-2{fill:#d4d4d4}.cls-1,.cls-2,.cls-3,.cls-4{fill-rule:evenodd}.cls-1{filter:url(#filter)}.cls-2{filter:url(#filter-2)}.cls-3{fill:#000101;filter:url(#filter-3)}.cls-4{filter:url(#filter-4)}</style><filter id="filter" x="-.188" y="30.531" width="19.656" height="19.656" filterUnits="userSpaceOnUse"><feFlood result="flood" flood-color="#d4d4d4"/><feComposite result="composite" operator="in" in2="SourceGraphic"/><feBlend result="blend" in2="SourceGraphic"/></filter><filter id="filter-2" x="-.188" y="-.188" width="19.656" height="19.656" filterUnits="userSpaceOnUse"><feFlood result="flood" flood-color="#d4d4d4"/><feComposite result="composite" operator="in" in2="SourceGraphic"/><feBlend result="blend" in2="SourceGraphic"/></filter><filter id="filter-3" x="30.531" y="-.188" width="19.656" height="19.656" filterUnits="userSpaceOnUse"><feFlood result="flood" flood-color="#d4d4d4"/><feComposite result="composite" operator="in" in2="SourceGraphic"/><feBlend result="blend" in2="SourceGraphic"/></filter><filter id="filter-4" x="30.531" y="30.531" width="19.656" height="19.656" filterUnits="userSpaceOnUse"><feFlood result="flood" flood-color="#d4d4d4"/><feComposite result="composite" operator="in" in2="SourceGraphic"/><feBlend result="blend" in2="SourceGraphic"/></filter></defs><path class="cls-1" d="M16.925 30.531L3.42 44.037l.019-10.2-3.612 3.613L-.2 50.2l12.748-.024 3.611-3.611-10.2.019 13.51-13.509z"/><path id="Shape_1_copy" data-name="Shape 1 copy" class="cls-2" d="M16.925 19.469L3.42 5.963l.019 10.2-3.612-3.613L-.2-.2l12.75.027 3.611 3.611-10.2-.019 13.508 13.506z"/><path id="Shape_1_copy_2" data-name="Shape 1 copy 2" class="cls-3" d="M33.075 19.469L46.58 5.963l-.019 10.2 3.611-3.611L50.2-.2l-12.75.027-3.611 3.611 10.2-.019-13.508 13.506z"/><path id="Shape_1_copy_3" data-name="Shape 1 copy 3" class="cls-4" d="M30.531 33.075L44.037 46.58l-10.2-.019 3.611 3.611L50.2 50.2l-.027-12.75-3.611-3.611.019 10.2-13.506-13.508z"/></svg>